<mxfile host="app.diagrams.net" modified="2022-07-03T21:16:04.352Z" agent="5.0 (Windows NT 10.0; Win64; x64) AppleWebKit/537.36 (KHTML, like Gecko) Chrome/103.0.0.0 Safari/537.36" etag="FjgB8TNtdXPxT20Fm2io" version="20.0.1" type="github">
  <diagram id="1Tc8MfJABgR7N0DuNLB_" name="Page-1">
    <mxGraphModel dx="1422" dy="832" grid="1" gridSize="10" guides="1" tooltips="1" connect="1" arrows="1" fold="1" page="1" pageScale="1" pageWidth="827" pageHeight="1169" math="0" shadow="0">
      <root>
        <mxCell id="0" />
        <mxCell id="1" parent="0" />
        <mxCell id="zIADTViFx_Ct5hKaXOQi-155" value="" style="endArrow=none;html=1;rounded=0;fontSize=12;fontColor=#000000;entryX=0.5;entryY=1;entryDx=0;entryDy=0;exitX=0.525;exitY=-0.01;exitDx=0;exitDy=0;exitPerimeter=0;" edge="1" parent="1" source="zIADTViFx_Ct5hKaXOQi-145" target="zIADTViFx_Ct5hKaXOQi-148">
          <mxGeometry width="50" height="50" relative="1" as="geometry">
            <mxPoint x="390" y="2580" as="sourcePoint" />
            <mxPoint x="440" y="2530" as="targetPoint" />
          </mxGeometry>
        </mxCell>
        <mxCell id="zIADTViFx_Ct5hKaXOQi-1" value="C" style="ellipse;whiteSpace=wrap;html=1;aspect=fixed;" vertex="1" parent="1">
          <mxGeometry x="370" y="10" width="30" height="30" as="geometry" />
        </mxCell>
        <mxCell id="zIADTViFx_Ct5hKaXOQi-2" value="int meses&amp;nbsp;&lt;span style=&quot;background-color: rgb(255, 255, 255); color: rgb(31, 31, 31); font-family: &amp;quot;Google Sans&amp;quot;, &amp;quot;Google Sans Text&amp;quot;, Roboto, sans-serif; letter-spacing: 0rem; text-align: left;&quot;&gt;[12]= {1,2,3,4,5,6,7,8,9,10,11,12}&lt;/span&gt;" style="rounded=0;whiteSpace=wrap;html=1;" vertex="1" parent="1">
          <mxGeometry x="460" y="110" width="180" height="30" as="geometry" />
        </mxCell>
        <mxCell id="zIADTViFx_Ct5hKaXOQi-4" value="float PrecioU&amp;nbsp;&lt;span style=&quot;background-color: rgb(255, 255, 255); color: rgb(31, 31, 31); font-family: &amp;quot;Google Sans&amp;quot;, &amp;quot;Google Sans Text&amp;quot;, Roboto, sans-serif; letter-spacing: 0rem; text-align: left;&quot;&gt;[15]={}&lt;/span&gt;" style="rounded=0;whiteSpace=wrap;html=1;" vertex="1" parent="1">
          <mxGeometry x="220" y="110" width="110" height="30" as="geometry" />
        </mxCell>
        <mxCell id="zIADTViFx_Ct5hKaXOQi-7" value="carga L1&lt;br&gt;&lt;br&gt;(VecArt, PrecioU)" style="shape=hexagon;perimeter=hexagonPerimeter2;whiteSpace=wrap;html=1;fixedSize=1;fontSize=12;" vertex="1" parent="1">
          <mxGeometry x="325" y="200" width="120" height="50" as="geometry" />
        </mxCell>
        <mxCell id="zIADTViFx_Ct5hKaXOQi-8" value="" style="endArrow=none;html=1;rounded=0;fontSize=12;entryX=1;entryY=0.5;entryDx=0;entryDy=0;exitX=0;exitY=0.5;exitDx=0;exitDy=0;" edge="1" parent="1" source="zIADTViFx_Ct5hKaXOQi-7" target="zIADTViFx_Ct5hKaXOQi-7">
          <mxGeometry width="50" height="50" relative="1" as="geometry">
            <mxPoint x="395" y="500" as="sourcePoint" />
            <mxPoint x="445" y="450" as="targetPoint" />
          </mxGeometry>
        </mxCell>
        <mxCell id="zIADTViFx_Ct5hKaXOQi-9" value="void main" style="shape=hexagon;perimeter=hexagonPerimeter2;whiteSpace=wrap;html=1;fixedSize=1;fontSize=12;" vertex="1" parent="1">
          <mxGeometry x="325" y="60" width="120" height="40" as="geometry" />
        </mxCell>
        <mxCell id="zIADTViFx_Ct5hKaXOQi-12" value="void carga L1&lt;br&gt;&lt;br&gt;int v1&lt;span style=&quot;color: rgb(31, 31, 31); font-family: &amp;quot;Google Sans&amp;quot;, &amp;quot;Google Sans Text&amp;quot;, Roboto, sans-serif; text-align: left; background-color: rgb(255, 255, 255);&quot;&gt;[15]&lt;/span&gt;&lt;span style=&quot;color: rgb(31, 31, 31); font-family: &amp;quot;Google Sans&amp;quot;, &amp;quot;Google Sans Text&amp;quot;, Roboto, sans-serif; text-align: left; background-color: rgb(255, 255, 255);&quot;&gt;, &lt;/span&gt;&lt;span style=&quot;font-family: &amp;quot;Google Sans&amp;quot;, &amp;quot;Google Sans Text&amp;quot;, Roboto, sans-serif; text-align: left; background-color: rgb(255, 255, 255);&quot;&gt;&lt;font color=&quot;#071673&quot;&gt;float&lt;/font&gt;&lt;/span&gt;&amp;nbsp;v2&lt;span style=&quot;color: rgb(31, 31, 31); font-family: &amp;quot;Google Sans&amp;quot;, &amp;quot;Google Sans Text&amp;quot;, Roboto, sans-serif; text-align: left; background-color: rgb(255, 255, 255);&quot;&gt;[15]&lt;/span&gt;" style="shape=hexagon;perimeter=hexagonPerimeter2;whiteSpace=wrap;html=1;fixedSize=1;fontSize=12;" vertex="1" parent="1">
          <mxGeometry x="98.75" y="1980" width="150" height="50" as="geometry" />
        </mxCell>
        <mxCell id="zIADTViFx_Ct5hKaXOQi-14" value="" style="swimlane;startSize=0;fontSize=12;" vertex="1" parent="1">
          <mxGeometry x="47.5" y="2060" width="252.5" height="160" as="geometry" />
        </mxCell>
        <mxCell id="zIADTViFx_Ct5hKaXOQi-48" value="&lt;span style=&quot;&quot;&gt;v1&lt;/span&gt;&lt;span style=&quot;color: rgb(31, 31, 31); font-family: &amp;quot;Google Sans&amp;quot;, &amp;quot;Google Sans Text&amp;quot;, Roboto, sans-serif; text-align: left; background-color: rgb(255, 255, 255);&quot;&gt;[i]&lt;/span&gt;" style="shape=trapezoid;perimeter=trapezoidPerimeter;whiteSpace=wrap;html=1;fixedSize=1;fontSize=12;flipV=1;" vertex="1" parent="zIADTViFx_Ct5hKaXOQi-14">
          <mxGeometry x="61.25" y="40" width="130" height="30" as="geometry" />
        </mxCell>
        <mxCell id="zIADTViFx_Ct5hKaXOQi-49" value="&lt;span style=&quot;&quot;&gt;v2&lt;/span&gt;&lt;span style=&quot;color: rgb(31, 31, 31); font-family: &amp;quot;Google Sans&amp;quot;, &amp;quot;Google Sans Text&amp;quot;, Roboto, sans-serif; text-align: left; background-color: rgb(255, 255, 255);&quot;&gt;[i]&lt;/span&gt;" style="shape=trapezoid;perimeter=trapezoidPerimeter;whiteSpace=wrap;html=1;fixedSize=1;fontSize=12;flipV=1;" vertex="1" parent="zIADTViFx_Ct5hKaXOQi-14">
          <mxGeometry x="61.25" y="90" width="130" height="30" as="geometry" />
        </mxCell>
        <mxCell id="zIADTViFx_Ct5hKaXOQi-13" value="i=0;i&amp;lt;15;i++" style="ellipse;whiteSpace=wrap;html=1;aspect=fixed;fontSize=12;" vertex="1" parent="zIADTViFx_Ct5hKaXOQi-14">
          <mxGeometry x="-37.5" y="30" width="80" height="80" as="geometry" />
        </mxCell>
        <mxCell id="zIADTViFx_Ct5hKaXOQi-15" value="" style="endArrow=none;html=1;rounded=0;fontSize=12;entryX=0.5;entryY=1;entryDx=0;entryDy=0;exitX=0.5;exitY=0;exitDx=0;exitDy=0;" edge="1" parent="1" source="zIADTViFx_Ct5hKaXOQi-14" target="zIADTViFx_Ct5hKaXOQi-12">
          <mxGeometry width="50" height="50" relative="1" as="geometry">
            <mxPoint x="-210" y="2210" as="sourcePoint" />
            <mxPoint x="-160" y="2160" as="targetPoint" />
          </mxGeometry>
        </mxCell>
        <mxCell id="zIADTViFx_Ct5hKaXOQi-23" value="F" style="ellipse;whiteSpace=wrap;html=1;aspect=fixed;" vertex="1" parent="1">
          <mxGeometry x="158.75" y="2270" width="30" height="30" as="geometry" />
        </mxCell>
        <mxCell id="zIADTViFx_Ct5hKaXOQi-24" value="" style="endArrow=none;html=1;rounded=0;fontSize=12;entryX=0.5;entryY=1;entryDx=0;entryDy=0;exitX=0.5;exitY=0;exitDx=0;exitDy=0;" edge="1" parent="1" source="zIADTViFx_Ct5hKaXOQi-23" target="zIADTViFx_Ct5hKaXOQi-14">
          <mxGeometry width="50" height="50" relative="1" as="geometry">
            <mxPoint x="-210" y="2210" as="sourcePoint" />
            <mxPoint x="-160" y="2160" as="targetPoint" />
          </mxGeometry>
        </mxCell>
        <mxCell id="zIADTViFx_Ct5hKaXOQi-29" value="F" style="ellipse;whiteSpace=wrap;html=1;aspect=fixed;" vertex="1" parent="1">
          <mxGeometry x="335" y="860" width="30" height="30" as="geometry" />
        </mxCell>
        <mxCell id="zIADTViFx_Ct5hKaXOQi-32" value="" style="endArrow=none;html=1;rounded=0;fontSize=12;exitX=0.396;exitY=0;exitDx=0;exitDy=0;startArrow=none;entryX=0.522;entryY=-0.002;entryDx=0;entryDy=0;exitPerimeter=0;entryPerimeter=0;" edge="1" parent="1" source="zIADTViFx_Ct5hKaXOQi-57" target="zIADTViFx_Ct5hKaXOQi-59">
          <mxGeometry width="50" height="50" relative="1" as="geometry">
            <mxPoint x="325" y="200" as="sourcePoint" />
            <mxPoint x="380" y="340" as="targetPoint" />
            <Array as="points" />
          </mxGeometry>
        </mxCell>
        <mxCell id="zIADTViFx_Ct5hKaXOQi-42" value="" style="endArrow=none;html=1;rounded=0;fontSize=12;entryX=0.5;entryY=1;entryDx=0;entryDy=0;exitX=0.5;exitY=0;exitDx=0;exitDy=0;" edge="1" parent="1" source="zIADTViFx_Ct5hKaXOQi-9" target="zIADTViFx_Ct5hKaXOQi-1">
          <mxGeometry width="50" height="50" relative="1" as="geometry">
            <mxPoint x="480" y="410" as="sourcePoint" />
            <mxPoint x="530" y="360" as="targetPoint" />
          </mxGeometry>
        </mxCell>
        <mxCell id="zIADTViFx_Ct5hKaXOQi-43" value="" style="endArrow=none;html=1;rounded=0;fontSize=12;entryX=0.5;entryY=1;entryDx=0;entryDy=0;exitX=0.5;exitY=0;exitDx=0;exitDy=0;" edge="1" parent="1" source="zIADTViFx_Ct5hKaXOQi-7" target="zIADTViFx_Ct5hKaXOQi-9">
          <mxGeometry width="50" height="50" relative="1" as="geometry">
            <mxPoint x="480" y="410" as="sourcePoint" />
            <mxPoint x="530" y="360" as="targetPoint" />
          </mxGeometry>
        </mxCell>
        <mxCell id="zIADTViFx_Ct5hKaXOQi-6" value="int VecArt&amp;nbsp;&lt;span style=&quot;background-color: rgb(255, 255, 255); color: rgb(31, 31, 31); font-family: &amp;quot;Google Sans&amp;quot;, &amp;quot;Google Sans Text&amp;quot;, Roboto, sans-serif; letter-spacing: 0rem; text-align: left;&quot;&gt;[15]={}&lt;/span&gt;" style="rounded=0;whiteSpace=wrap;html=1;" vertex="1" parent="1">
          <mxGeometry x="345" y="110" width="100" height="30" as="geometry" />
        </mxCell>
        <mxCell id="zIADTViFx_Ct5hKaXOQi-55" value="int cv" style="rounded=0;whiteSpace=wrap;html=1;labelBackgroundColor=#FFFFFF;fontSize=12;fontColor=#000000;" vertex="1" parent="1">
          <mxGeometry x="340" y="150" width="90" height="30" as="geometry" />
        </mxCell>
        <mxCell id="zIADTViFx_Ct5hKaXOQi-56" value="int nc" style="rounded=0;whiteSpace=wrap;html=1;labelBackgroundColor=#FFFFFF;fontSize=12;fontColor=#000000;" vertex="1" parent="1">
          <mxGeometry x="240" y="150" width="90" height="30" as="geometry" />
        </mxCell>
        <mxCell id="zIADTViFx_Ct5hKaXOQi-59" value="nc!=0" style="swimlane;labelBackgroundColor=#FFFFFF;fontSize=12;fontColor=#000000;" vertex="1" parent="1">
          <mxGeometry x="120" y="340" width="460" height="510" as="geometry" />
        </mxCell>
        <mxCell id="zIADTViFx_Ct5hKaXOQi-86" value="nc, mes, cv, art&amp;nbsp;" style="shape=trapezoid;perimeter=trapezoidPerimeter;whiteSpace=wrap;html=1;fixedSize=1;labelBackgroundColor=#FFFFFF;fontSize=12;fontColor=#000000;flipV=1;" vertex="1" parent="zIADTViFx_Ct5hKaXOQi-59">
          <mxGeometry x="137.5" y="450" width="225" height="35" as="geometry" />
        </mxCell>
        <mxCell id="zIADTViFx_Ct5hKaXOQi-110" value="cventasxmes&lt;br&gt;&lt;br&gt;mes&amp;nbsp; &amp;nbsp; &amp;nbsp; &amp;nbsp; &amp;nbsp; &amp;nbsp; &amp;nbsp; &amp;nbsp; &amp;nbsp; &amp;nbsp; ctv&lt;span style=&quot;color: rgb(31, 31, 31); font-family: &amp;quot;Google Sans&amp;quot;, &amp;quot;Google Sans Text&amp;quot;, Roboto, sans-serif; text-align: left; background-color: rgb(255, 255, 255);&quot;&gt;,&amp;nbsp;&lt;/span&gt;meses" style="shape=hexagon;perimeter=hexagonPerimeter2;whiteSpace=wrap;html=1;fixedSize=1;labelBackgroundColor=none;fontSize=12;" vertex="1" parent="zIADTViFx_Ct5hKaXOQi-59">
          <mxGeometry x="130" y="80" width="240" height="70" as="geometry" />
        </mxCell>
        <mxCell id="zIADTViFx_Ct5hKaXOQi-111" value="" style="endArrow=none;html=1;rounded=0;fontSize=12;fontColor=#000000;entryX=1;entryY=0.5;entryDx=0;entryDy=0;exitX=0;exitY=0.5;exitDx=0;exitDy=0;" edge="1" parent="zIADTViFx_Ct5hKaXOQi-59" source="zIADTViFx_Ct5hKaXOQi-110" target="zIADTViFx_Ct5hKaXOQi-110">
          <mxGeometry width="50" height="50" relative="1" as="geometry">
            <mxPoint x="250" y="220" as="sourcePoint" />
            <mxPoint x="300" y="170" as="targetPoint" />
          </mxGeometry>
        </mxCell>
        <mxCell id="zIADTViFx_Ct5hKaXOQi-117" value="monto = 0" style="rounded=0;whiteSpace=wrap;html=1;labelBackgroundColor=none;fontSize=12;" vertex="1" parent="zIADTViFx_Ct5hKaXOQi-59">
          <mxGeometry x="190" y="40" width="110" height="20" as="geometry" />
        </mxCell>
        <mxCell id="zIADTViFx_Ct5hKaXOQi-119" value="montoxcl&lt;br&gt;&lt;br&gt;art, monto, cv&amp;nbsp; &amp;nbsp; &amp;nbsp; &amp;nbsp; &amp;nbsp; &amp;nbsp; &amp;nbsp; &amp;nbsp;PrecioU&lt;span style=&quot;color: rgb(31, 31, 31); font-family: &amp;quot;Google Sans&amp;quot;, &amp;quot;Google Sans Text&amp;quot;, Roboto, sans-serif; text-align: left; background-color: rgb(255, 255, 255);&quot;&gt;,&amp;nbsp;&lt;/span&gt;VecArt" style="shape=hexagon;perimeter=hexagonPerimeter2;whiteSpace=wrap;html=1;fixedSize=1;labelBackgroundColor=none;fontSize=12;" vertex="1" parent="zIADTViFx_Ct5hKaXOQi-59">
          <mxGeometry x="128.75" y="170" width="232.5" height="60" as="geometry" />
        </mxCell>
        <mxCell id="zIADTViFx_Ct5hKaXOQi-120" value="" style="endArrow=none;html=1;rounded=0;fontSize=12;fontColor=#000000;entryX=1;entryY=0.5;entryDx=0;entryDy=0;exitX=0;exitY=0.5;exitDx=0;exitDy=0;" edge="1" parent="zIADTViFx_Ct5hKaXOQi-59" source="zIADTViFx_Ct5hKaXOQi-119" target="zIADTViFx_Ct5hKaXOQi-119">
          <mxGeometry width="50" height="50" relative="1" as="geometry">
            <mxPoint x="108.75" y="-40" as="sourcePoint" />
            <mxPoint x="158.75" y="-90" as="targetPoint" />
          </mxGeometry>
        </mxCell>
        <mxCell id="zIADTViFx_Ct5hKaXOQi-121" value="" style="endArrow=none;html=1;rounded=0;fontSize=12;fontColor=#000000;" edge="1" parent="zIADTViFx_Ct5hKaXOQi-59">
          <mxGeometry width="50" height="50" relative="1" as="geometry">
            <mxPoint x="230" y="230" as="sourcePoint" />
            <mxPoint x="230" y="200" as="targetPoint" />
          </mxGeometry>
        </mxCell>
        <mxCell id="zIADTViFx_Ct5hKaXOQi-132" value="nc, monto" style="shape=trapezoid;perimeter=trapezoidPerimeter;whiteSpace=wrap;html=1;fixedSize=1;labelBackgroundColor=none;fontSize=12;" vertex="1" parent="zIADTViFx_Ct5hKaXOQi-59">
          <mxGeometry x="180" y="400" width="140" height="30" as="geometry" />
        </mxCell>
        <mxCell id="zIADTViFx_Ct5hKaXOQi-140" value="Funcion para ordenar el punto A" style="text;html=1;strokeColor=none;fillColor=none;align=center;verticalAlign=middle;whiteSpace=wrap;rounded=0;labelBackgroundColor=none;fontSize=12;fontColor=#000000;" vertex="1" parent="zIADTViFx_Ct5hKaXOQi-59">
          <mxGeometry x="135" y="260" width="250" height="40" as="geometry" />
        </mxCell>
        <mxCell id="zIADTViFx_Ct5hKaXOQi-141" value="Funcion para reflajar la lista del punto A" style="text;html=1;strokeColor=none;fillColor=none;align=center;verticalAlign=middle;whiteSpace=wrap;rounded=0;labelBackgroundColor=none;fontSize=12;fontColor=#000000;" vertex="1" parent="zIADTViFx_Ct5hKaXOQi-59">
          <mxGeometry x="110" y="280" width="280" height="60" as="geometry" />
        </mxCell>
        <mxCell id="zIADTViFx_Ct5hKaXOQi-142" value="Funcion para comparar cvt punto B" style="text;html=1;strokeColor=none;fillColor=none;align=center;verticalAlign=middle;whiteSpace=wrap;rounded=0;labelBackgroundColor=none;fontSize=12;fontColor=#000000;" vertex="1" parent="zIADTViFx_Ct5hKaXOQi-59">
          <mxGeometry x="100" y="330" width="300" height="30" as="geometry" />
        </mxCell>
        <mxCell id="zIADTViFx_Ct5hKaXOQi-143" value="Funcion para informar punto B" style="text;html=1;strokeColor=none;fillColor=none;align=center;verticalAlign=middle;whiteSpace=wrap;rounded=0;labelBackgroundColor=none;fontSize=12;fontColor=#000000;" vertex="1" parent="zIADTViFx_Ct5hKaXOQi-59">
          <mxGeometry x="110" y="360" width="300" height="30" as="geometry" />
        </mxCell>
        <mxCell id="zIADTViFx_Ct5hKaXOQi-57" value="nc, mes, cv, art&amp;nbsp;" style="shape=trapezoid;perimeter=trapezoidPerimeter;whiteSpace=wrap;html=1;fixedSize=1;labelBackgroundColor=#FFFFFF;fontSize=12;fontColor=#000000;flipV=1;" vertex="1" parent="1">
          <mxGeometry x="270" y="270" width="230" height="45" as="geometry" />
        </mxCell>
        <mxCell id="zIADTViFx_Ct5hKaXOQi-62" value="" style="endArrow=none;html=1;rounded=0;fontSize=12;entryX=0.5;entryY=0;entryDx=0;entryDy=0;exitX=0.5;exitY=1;exitDx=0;exitDy=0;" edge="1" parent="1" source="zIADTViFx_Ct5hKaXOQi-7" target="zIADTViFx_Ct5hKaXOQi-57">
          <mxGeometry width="50" height="50" relative="1" as="geometry">
            <mxPoint x="385" y="260" as="sourcePoint" />
            <mxPoint x="385" y="405" as="targetPoint" />
            <Array as="points" />
          </mxGeometry>
        </mxCell>
        <mxCell id="zIADTViFx_Ct5hKaXOQi-64" value="" style="endArrow=none;html=1;rounded=0;fontSize=12;fontColor=#000000;entryX=0.5;entryY=1;entryDx=0;entryDy=0;" edge="1" parent="1" source="zIADTViFx_Ct5hKaXOQi-29" target="zIADTViFx_Ct5hKaXOQi-59">
          <mxGeometry width="50" height="50" relative="1" as="geometry">
            <mxPoint x="500" y="535" as="sourcePoint" />
            <mxPoint x="550" y="485" as="targetPoint" />
          </mxGeometry>
        </mxCell>
        <mxCell id="zIADTViFx_Ct5hKaXOQi-65" value="Definicion" style="text;html=1;align=center;verticalAlign=middle;resizable=0;points=[];autosize=1;strokeColor=none;fillColor=none;fontSize=12;fontColor=#000000;" vertex="1" parent="1">
          <mxGeometry x="65" y="1950" width="70" height="20" as="geometry" />
        </mxCell>
        <mxCell id="zIADTViFx_Ct5hKaXOQi-69" value="" style="rounded=0;whiteSpace=wrap;html=1;labelBackgroundColor=#FFFFFF;fontSize=12;fontColor=#000000;" vertex="1" parent="1">
          <mxGeometry x="60" y="1300" width="410" height="180" as="geometry" />
        </mxCell>
        <mxCell id="zIADTViFx_Ct5hKaXOQi-67" value="i=0&amp;lt;12;i++" style="ellipse;whiteSpace=wrap;html=1;aspect=fixed;labelBackgroundColor=#FFFFFF;fontSize=12;fontColor=#000000;" vertex="1" parent="1">
          <mxGeometry x="20" y="1340" width="80" height="80" as="geometry" />
        </mxCell>
        <mxCell id="zIADTViFx_Ct5hKaXOQi-70" value="indm=i" style="rounded=0;whiteSpace=wrap;html=1;labelBackgroundColor=#FFFFFF;fontSize=12;fontColor=#000000;" vertex="1" parent="1">
          <mxGeometry x="120" y="1385" width="120" height="40" as="geometry" />
        </mxCell>
        <mxCell id="zIADTViFx_Ct5hKaXOQi-73" value="int art" style="rounded=0;whiteSpace=wrap;html=1;labelBackgroundColor=#FFFFFF;fontSize=12;fontColor=#000000;" vertex="1" parent="1">
          <mxGeometry x="140" y="150" width="90" height="30" as="geometry" />
        </mxCell>
        <mxCell id="zIADTViFx_Ct5hKaXOQi-74" value="mes==mesest&lt;span style=&quot;color: rgb(31, 31, 31); font-family: &amp;quot;Google Sans&amp;quot;, &amp;quot;Google Sans Text&amp;quot;, Roboto, sans-serif; text-align: left;&quot;&gt;[i]&lt;/span&gt;" style="rhombus;whiteSpace=wrap;html=1;labelBackgroundColor=#FFFFFF;fontSize=12;fontColor=#000000;" vertex="1" parent="1">
          <mxGeometry x="230" y="1310" width="150" height="60" as="geometry" />
        </mxCell>
        <mxCell id="zIADTViFx_Ct5hKaXOQi-75" value="" style="endArrow=none;html=1;rounded=0;fontSize=12;fontColor=#000000;exitX=0;exitY=0.5;exitDx=0;exitDy=0;entryX=0.5;entryY=0;entryDx=0;entryDy=0;" edge="1" parent="1" source="zIADTViFx_Ct5hKaXOQi-74" target="zIADTViFx_Ct5hKaXOQi-70">
          <mxGeometry width="50" height="50" relative="1" as="geometry">
            <mxPoint x="450" y="1390" as="sourcePoint" />
            <mxPoint x="200" y="1440" as="targetPoint" />
            <Array as="points">
              <mxPoint x="180" y="1340" />
            </Array>
          </mxGeometry>
        </mxCell>
        <mxCell id="zIADTViFx_Ct5hKaXOQi-76" value="Si" style="text;html=1;strokeColor=none;fillColor=none;align=center;verticalAlign=middle;whiteSpace=wrap;rounded=0;labelBackgroundColor=#FFFFFF;fontSize=12;fontColor=#000000;" vertex="1" parent="1">
          <mxGeometry x="120" y="1325" width="60" height="30" as="geometry" />
        </mxCell>
        <mxCell id="zIADTViFx_Ct5hKaXOQi-78" value="Guardo el indice del mes&amp;nbsp;" style="text;html=1;strokeColor=none;fillColor=none;align=center;verticalAlign=middle;whiteSpace=wrap;rounded=0;labelBackgroundColor=#FFFFFF;fontSize=12;fontColor=#000000;" vertex="1" parent="1">
          <mxGeometry x="390" y="1385" width="170" height="65" as="geometry" />
        </mxCell>
        <mxCell id="zIADTViFx_Ct5hKaXOQi-80" value="&lt;div style=&quot;text-align: center;&quot;&gt;&lt;span style=&quot;text-align: left;&quot;&gt;monto = PrecioU&lt;/span&gt;&lt;span style=&quot;color: rgb(31, 31, 31); font-family: &amp;quot;Google Sans&amp;quot;, &amp;quot;Google Sans Text&amp;quot;, Roboto, sans-serif; text-align: left;&quot;&gt;[ind] * cv&lt;/span&gt;&lt;/div&gt;" style="rounded=0;whiteSpace=wrap;html=1;labelBackgroundColor=#FFFFFF;fontSize=12;fontColor=#000000;" vertex="1" parent="1">
          <mxGeometry x="447" y="1974" width="170" height="40" as="geometry" />
        </mxCell>
        <mxCell id="zIADTViFx_Ct5hKaXOQi-81" value="int ctv&lt;span style=&quot;color: rgb(31, 31, 31); font-family: &amp;quot;Google Sans&amp;quot;, &amp;quot;Google Sans Text&amp;quot;, Roboto, sans-serif; text-align: left;&quot;&gt;[12]={}&lt;/span&gt;" style="rounded=0;whiteSpace=wrap;html=1;labelBackgroundColor=#FFFFFF;fontSize=12;fontColor=#000000;" vertex="1" parent="1">
          <mxGeometry x="100" y="110" width="110" height="30" as="geometry" />
        </mxCell>
        <mxCell id="zIADTViFx_Ct5hKaXOQi-82" value="multiplico el precio * la cantidad de ventas y obtener el monto total de ese cliente" style="text;html=1;strokeColor=none;fillColor=none;align=center;verticalAlign=middle;whiteSpace=wrap;rounded=0;labelBackgroundColor=#FFFFFF;fontSize=12;fontColor=#000000;" vertex="1" parent="1">
          <mxGeometry x="647" y="1964" width="160" height="80" as="geometry" />
        </mxCell>
        <mxCell id="zIADTViFx_Ct5hKaXOQi-84" value="&lt;div style=&quot;text-align: center;&quot;&gt;&lt;span style=&quot;text-align: left;&quot;&gt;ctv&lt;/span&gt;&lt;span style=&quot;color: rgb(31, 31, 31); font-family: &amp;quot;Google Sans&amp;quot;, &amp;quot;Google Sans Text&amp;quot;, Roboto, sans-serif; text-align: left;&quot;&gt;[indm] ++&lt;/span&gt;&lt;/div&gt;" style="rounded=0;whiteSpace=wrap;html=1;labelBackgroundColor=#FFFFFF;fontSize=12;fontColor=#000000;" vertex="1" parent="1">
          <mxGeometry x="155" y="1500" width="220" height="30" as="geometry" />
        </mxCell>
        <mxCell id="zIADTViFx_Ct5hKaXOQi-85" value="int mes" style="rounded=0;whiteSpace=wrap;html=1;labelBackgroundColor=#FFFFFF;fontSize=12;fontColor=#000000;" vertex="1" parent="1">
          <mxGeometry x="440" y="150" width="90" height="30" as="geometry" />
        </mxCell>
        <mxCell id="zIADTViFx_Ct5hKaXOQi-89" value="" style="endArrow=none;html=1;rounded=0;fontSize=12;fontColor=#000000;entryX=0.5;entryY=1;entryDx=0;entryDy=0;exitX=0.5;exitY=0;exitDx=0;exitDy=0;" edge="1" parent="1" source="zIADTViFx_Ct5hKaXOQi-84" target="zIADTViFx_Ct5hKaXOQi-69">
          <mxGeometry width="50" height="50" relative="1" as="geometry">
            <mxPoint x="450" y="1470" as="sourcePoint" />
            <mxPoint x="500" y="1420" as="targetPoint" />
          </mxGeometry>
        </mxCell>
        <mxCell id="zIADTViFx_Ct5hKaXOQi-90" value="" style="rounded=0;whiteSpace=wrap;html=1;labelBackgroundColor=#FFFFFF;fontSize=12;fontColor=#000000;" vertex="1" parent="1">
          <mxGeometry x="327" y="1774" width="410" height="180" as="geometry" />
        </mxCell>
        <mxCell id="zIADTViFx_Ct5hKaXOQi-91" value="x=0&amp;lt;15;x++" style="ellipse;whiteSpace=wrap;html=1;aspect=fixed;labelBackgroundColor=#FFFFFF;fontSize=12;fontColor=#000000;" vertex="1" parent="1">
          <mxGeometry x="287" y="1814" width="80" height="80" as="geometry" />
        </mxCell>
        <mxCell id="zIADTViFx_Ct5hKaXOQi-92" value="inda=x" style="rounded=0;whiteSpace=wrap;html=1;labelBackgroundColor=#FFFFFF;fontSize=12;fontColor=#000000;" vertex="1" parent="1">
          <mxGeometry x="387" y="1859" width="120" height="40" as="geometry" />
        </mxCell>
        <mxCell id="zIADTViFx_Ct5hKaXOQi-93" value="art==VecArtt&lt;span style=&quot;color: rgb(31, 31, 31); font-family: &amp;quot;Google Sans&amp;quot;, &amp;quot;Google Sans Text&amp;quot;, Roboto, sans-serif; text-align: left;&quot;&gt;[x]&lt;/span&gt;" style="rhombus;whiteSpace=wrap;html=1;labelBackgroundColor=#FFFFFF;fontSize=12;fontColor=#000000;" vertex="1" parent="1">
          <mxGeometry x="497" y="1784" width="150" height="60" as="geometry" />
        </mxCell>
        <mxCell id="zIADTViFx_Ct5hKaXOQi-94" value="" style="endArrow=none;html=1;rounded=0;fontSize=12;fontColor=#000000;exitX=0;exitY=0.5;exitDx=0;exitDy=0;entryX=0.5;entryY=0;entryDx=0;entryDy=0;" edge="1" parent="1" source="zIADTViFx_Ct5hKaXOQi-93" target="zIADTViFx_Ct5hKaXOQi-92">
          <mxGeometry width="50" height="50" relative="1" as="geometry">
            <mxPoint x="717" y="1864" as="sourcePoint" />
            <mxPoint x="467" y="1914" as="targetPoint" />
            <Array as="points">
              <mxPoint x="447" y="1814" />
            </Array>
          </mxGeometry>
        </mxCell>
        <mxCell id="zIADTViFx_Ct5hKaXOQi-95" value="Si" style="text;html=1;strokeColor=none;fillColor=none;align=center;verticalAlign=middle;whiteSpace=wrap;rounded=0;labelBackgroundColor=#FFFFFF;fontSize=12;fontColor=#000000;" vertex="1" parent="1">
          <mxGeometry x="387" y="1799" width="60" height="30" as="geometry" />
        </mxCell>
        <mxCell id="zIADTViFx_Ct5hKaXOQi-96" value="&lt;span style=&quot;color: rgb(0, 0, 0); font-family: Helvetica; font-size: 12px; font-style: normal; font-variant-ligatures: normal; font-variant-caps: normal; font-weight: 400; letter-spacing: normal; orphans: 2; text-align: center; text-indent: 0px; text-transform: none; widows: 2; word-spacing: 0px; -webkit-text-stroke-width: 0px; background-color: rgb(255, 255, 255); text-decoration-thickness: initial; text-decoration-style: initial; text-decoration-color: initial; float: none; display: inline !important;&quot;&gt;Guardo el indice del articulo&amp;nbsp;&lt;/span&gt;" style="text;whiteSpace=wrap;html=1;fontSize=12;fontColor=#000000;" vertex="1" parent="1">
          <mxGeometry x="667" y="1859" width="160" height="30" as="geometry" />
        </mxCell>
        <mxCell id="zIADTViFx_Ct5hKaXOQi-97" value="" style="endArrow=none;html=1;rounded=0;fontSize=12;fontColor=#000000;entryX=0.5;entryY=1;entryDx=0;entryDy=0;exitX=0.5;exitY=0;exitDx=0;exitDy=0;" edge="1" parent="1" source="zIADTViFx_Ct5hKaXOQi-80" target="zIADTViFx_Ct5hKaXOQi-90">
          <mxGeometry width="50" height="50" relative="1" as="geometry">
            <mxPoint x="717" y="1894" as="sourcePoint" />
            <mxPoint x="767" y="1844" as="targetPoint" />
          </mxGeometry>
        </mxCell>
        <mxCell id="zIADTViFx_Ct5hKaXOQi-98" value="&amp;nbsp;completa el vector de contador de ventas totales en el indice relacionado al mes correspondiente" style="text;html=1;strokeColor=none;fillColor=none;align=center;verticalAlign=middle;whiteSpace=wrap;rounded=0;labelBackgroundColor=#FFFFFF;fontSize=12;fontColor=#000000;" vertex="1" parent="1">
          <mxGeometry x="387" y="1500" width="290" height="30" as="geometry" />
        </mxCell>
        <mxCell id="zIADTViFx_Ct5hKaXOQi-99" value="A y B" style="ellipse;whiteSpace=wrap;html=1;labelBackgroundColor=none;fontSize=12;fillColor=#e1d5e7;strokeColor=#9673a6;" vertex="1" parent="1">
          <mxGeometry x="45" y="1220" width="80" height="45" as="geometry" />
        </mxCell>
        <mxCell id="zIADTViFx_Ct5hKaXOQi-100" value="C" style="ellipse;whiteSpace=wrap;html=1;labelBackgroundColor=none;fontSize=12;fillColor=#e1d5e7;strokeColor=#9673a6;" vertex="1" parent="1">
          <mxGeometry x="447" y="1600" width="80" height="45" as="geometry" />
        </mxCell>
        <mxCell id="zIADTViFx_Ct5hKaXOQi-104" value="" style="endArrow=none;html=1;rounded=0;fontSize=12;fontColor=#000000;exitX=1;exitY=0.5;exitDx=0;exitDy=0;entryX=0.5;entryY=1;entryDx=0;entryDy=0;" edge="1" parent="1" source="zIADTViFx_Ct5hKaXOQi-74" target="zIADTViFx_Ct5hKaXOQi-70">
          <mxGeometry width="50" height="50" relative="1" as="geometry">
            <mxPoint x="295" y="1680" as="sourcePoint" />
            <mxPoint x="180" y="1430" as="targetPoint" />
            <Array as="points">
              <mxPoint x="380" y="1440" />
              <mxPoint x="180" y="1440" />
            </Array>
          </mxGeometry>
        </mxCell>
        <mxCell id="zIADTViFx_Ct5hKaXOQi-105" value="" style="shape=hexagon;perimeter=hexagonPerimeter2;whiteSpace=wrap;html=1;fixedSize=1;labelBackgroundColor=none;fontSize=12;" vertex="1" parent="1">
          <mxGeometry x="155" y="1190" width="250" height="80" as="geometry" />
        </mxCell>
        <mxCell id="zIADTViFx_Ct5hKaXOQi-106" value="" style="endArrow=none;html=1;rounded=0;fontSize=12;fontColor=#000000;entryX=1;entryY=0.5;entryDx=0;entryDy=0;exitX=0;exitY=0.5;exitDx=0;exitDy=0;" edge="1" parent="1" source="zIADTViFx_Ct5hKaXOQi-105" target="zIADTViFx_Ct5hKaXOQi-105">
          <mxGeometry width="50" height="50" relative="1" as="geometry">
            <mxPoint x="295" y="1440" as="sourcePoint" />
            <mxPoint x="345" y="1390" as="targetPoint" />
          </mxGeometry>
        </mxCell>
        <mxCell id="zIADTViFx_Ct5hKaXOQi-107" value="" style="endArrow=none;html=1;rounded=0;fontSize=12;fontColor=#000000;" edge="1" parent="1">
          <mxGeometry width="50" height="50" relative="1" as="geometry">
            <mxPoint x="250" y="1270" as="sourcePoint" />
            <mxPoint x="250" y="1230" as="targetPoint" />
          </mxGeometry>
        </mxCell>
        <mxCell id="zIADTViFx_Ct5hKaXOQi-108" value="" style="endArrow=none;html=1;rounded=0;fontSize=12;fontColor=#000000;exitX=0.534;exitY=0.011;exitDx=0;exitDy=0;exitPerimeter=0;" edge="1" parent="1" source="zIADTViFx_Ct5hKaXOQi-69">
          <mxGeometry width="50" height="50" relative="1" as="geometry">
            <mxPoint x="300" y="1580" as="sourcePoint" />
            <mxPoint x="279" y="1270" as="targetPoint" />
          </mxGeometry>
        </mxCell>
        <mxCell id="zIADTViFx_Ct5hKaXOQi-109" value="" style="endArrow=none;html=1;rounded=0;fontSize=12;fontColor=#000000;entryX=1;entryY=0.5;entryDx=0;entryDy=0;exitX=0;exitY=0.5;exitDx=0;exitDy=0;" edge="1" parent="1" source="zIADTViFx_Ct5hKaXOQi-12" target="zIADTViFx_Ct5hKaXOQi-12">
          <mxGeometry width="50" height="50" relative="1" as="geometry">
            <mxPoint x="-310" y="2220" as="sourcePoint" />
            <mxPoint x="-260" y="2170" as="targetPoint" />
          </mxGeometry>
        </mxCell>
        <mxCell id="zIADTViFx_Ct5hKaXOQi-112" value="" style="endArrow=none;html=1;rounded=0;fontSize=12;fontColor=#000000;" edge="1" parent="1">
          <mxGeometry width="50" height="50" relative="1" as="geometry">
            <mxPoint x="350" y="490" as="sourcePoint" />
            <mxPoint x="350" y="455" as="targetPoint" />
          </mxGeometry>
        </mxCell>
        <mxCell id="zIADTViFx_Ct5hKaXOQi-115" value="" style="endArrow=none;html=1;rounded=0;fontSize=12;fontColor=#000000;entryX=0.5;entryY=1;entryDx=0;entryDy=0;exitX=0.5;exitY=0;exitDx=0;exitDy=0;" edge="1" parent="1" source="zIADTViFx_Ct5hKaXOQi-90">
          <mxGeometry width="50" height="50" relative="1" as="geometry">
            <mxPoint x="532" y="1770" as="sourcePoint" />
            <mxPoint x="532" y="1740" as="targetPoint" />
          </mxGeometry>
        </mxCell>
        <mxCell id="zIADTViFx_Ct5hKaXOQi-118" value="int monto" style="rounded=0;whiteSpace=wrap;html=1;labelBackgroundColor=none;fontSize=12;" vertex="1" parent="1">
          <mxGeometry x="540" y="150" width="100" height="30" as="geometry" />
        </mxCell>
        <mxCell id="zIADTViFx_Ct5hKaXOQi-122" value="int mes" style="text;html=1;strokeColor=none;fillColor=none;align=center;verticalAlign=middle;whiteSpace=wrap;rounded=0;labelBackgroundColor=none;fontSize=12;fontColor=#000000;" vertex="1" parent="1">
          <mxGeometry x="180" y="1235" width="60" height="30" as="geometry" />
        </mxCell>
        <mxCell id="zIADTViFx_Ct5hKaXOQi-123" value="&amp;nbsp; int ctv[&lt;span style=&quot;color: rgb(31, 31, 31); font-family: &amp;quot;Google Sans&amp;quot;, &amp;quot;Google Sans Text&amp;quot;, Roboto, sans-serif; text-align: left; background-color: rgb(255, 255, 255);&quot;&gt;12],&amp;nbsp; i&lt;/span&gt;nt meses[&lt;span style=&quot;color: rgb(31, 31, 31); font-family: &amp;quot;Google Sans&amp;quot;, &amp;quot;Google Sans Text&amp;quot;, Roboto, sans-serif; text-align: left; background-color: rgb(255, 255, 255);&quot;&gt;12]&lt;/span&gt;" style="text;html=1;strokeColor=none;fillColor=none;align=center;verticalAlign=middle;whiteSpace=wrap;rounded=0;labelBackgroundColor=none;fontSize=12;fontColor=#000000;" vertex="1" parent="1">
          <mxGeometry x="249" y="1235" width="146" height="30" as="geometry" />
        </mxCell>
        <mxCell id="zIADTViFx_Ct5hKaXOQi-125" value="void cventasxmes" style="text;html=1;strokeColor=none;fillColor=none;align=center;verticalAlign=middle;whiteSpace=wrap;rounded=0;labelBackgroundColor=none;fontSize=12;fontColor=#000000;" vertex="1" parent="1">
          <mxGeometry x="210" y="1190" width="130" height="30" as="geometry" />
        </mxCell>
        <mxCell id="zIADTViFx_Ct5hKaXOQi-126" value="" style="shape=hexagon;perimeter=hexagonPerimeter2;whiteSpace=wrap;html=1;fixedSize=1;labelBackgroundColor=none;fontSize=12;" vertex="1" parent="1">
          <mxGeometry x="370" y="1664" width="307" height="80" as="geometry" />
        </mxCell>
        <mxCell id="zIADTViFx_Ct5hKaXOQi-127" value="" style="endArrow=none;html=1;rounded=0;fontSize=12;fontColor=#000000;entryX=1;entryY=0.5;entryDx=0;entryDy=0;exitX=0;exitY=0.5;exitDx=0;exitDy=0;" edge="1" parent="1" source="zIADTViFx_Ct5hKaXOQi-126" target="zIADTViFx_Ct5hKaXOQi-126">
          <mxGeometry width="50" height="50" relative="1" as="geometry">
            <mxPoint x="557" y="1914" as="sourcePoint" />
            <mxPoint x="607" y="1864" as="targetPoint" />
          </mxGeometry>
        </mxCell>
        <mxCell id="zIADTViFx_Ct5hKaXOQi-128" value="" style="endArrow=none;html=1;rounded=0;fontSize=12;fontColor=#000000;" edge="1" parent="1">
          <mxGeometry width="50" height="50" relative="1" as="geometry">
            <mxPoint x="512" y="1744" as="sourcePoint" />
            <mxPoint x="512" y="1704" as="targetPoint" />
          </mxGeometry>
        </mxCell>
        <mxCell id="zIADTViFx_Ct5hKaXOQi-129" value="int art, int monto, int cv&amp;nbsp;" style="text;html=1;strokeColor=none;fillColor=none;align=center;verticalAlign=middle;whiteSpace=wrap;rounded=0;labelBackgroundColor=none;fontSize=12;fontColor=#000000;" vertex="1" parent="1">
          <mxGeometry x="380" y="1709" width="131" height="30" as="geometry" />
        </mxCell>
        <mxCell id="zIADTViFx_Ct5hKaXOQi-130" value="&amp;nbsp; int vecar[&lt;span style=&quot;color: rgb(31, 31, 31); font-family: &amp;quot;Google Sans&amp;quot;, &amp;quot;Google Sans Text&amp;quot;, Roboto, sans-serif; text-align: left; background-color: rgb(255, 255, 255);&quot;&gt;15],&amp;nbsp; float&lt;/span&gt;&amp;nbsp;P[&lt;span style=&quot;color: rgb(31, 31, 31); font-family: &amp;quot;Google Sans&amp;quot;, &amp;quot;Google Sans Text&amp;quot;, Roboto, sans-serif; text-align: left; background-color: rgb(255, 255, 255);&quot;&gt;15]&lt;/span&gt;" style="text;html=1;strokeColor=none;fillColor=none;align=center;verticalAlign=middle;whiteSpace=wrap;rounded=0;labelBackgroundColor=none;fontSize=12;fontColor=#000000;" vertex="1" parent="1">
          <mxGeometry x="511" y="1709" width="146" height="30" as="geometry" />
        </mxCell>
        <mxCell id="zIADTViFx_Ct5hKaXOQi-131" value="int montoxcl" style="text;html=1;strokeColor=none;fillColor=none;align=center;verticalAlign=middle;whiteSpace=wrap;rounded=0;labelBackgroundColor=none;fontSize=12;fontColor=#000000;" vertex="1" parent="1">
          <mxGeometry x="460" y="1664" width="90" height="30" as="geometry" />
        </mxCell>
        <mxCell id="zIADTViFx_Ct5hKaXOQi-133" value="" style="endArrow=none;html=1;rounded=0;fontSize=12;fontColor=#000000;entryX=1;entryY=0.5;entryDx=0;entryDy=0;exitX=1;exitY=0.5;exitDx=0;exitDy=0;" edge="1" parent="1" source="zIADTViFx_Ct5hKaXOQi-92" target="zIADTViFx_Ct5hKaXOQi-93">
          <mxGeometry width="50" height="50" relative="1" as="geometry">
            <mxPoint x="547" y="1750" as="sourcePoint" />
            <mxPoint x="597" y="1700" as="targetPoint" />
            <Array as="points">
              <mxPoint x="647" y="1880" />
            </Array>
          </mxGeometry>
        </mxCell>
        <mxCell id="zIADTViFx_Ct5hKaXOQi-134" value="Definicion" style="text;html=1;strokeColor=none;fillColor=none;align=center;verticalAlign=middle;whiteSpace=wrap;rounded=0;labelBackgroundColor=none;fontSize=12;fontColor=#000000;" vertex="1" parent="1">
          <mxGeometry x="318.25" y="1674" width="48.75" height="20" as="geometry" />
        </mxCell>
        <mxCell id="zIADTViFx_Ct5hKaXOQi-135" value="Definicion" style="text;html=1;strokeColor=none;fillColor=none;align=center;verticalAlign=middle;whiteSpace=wrap;rounded=0;labelBackgroundColor=none;fontSize=12;fontColor=#000000;" vertex="1" parent="1">
          <mxGeometry x="65" y="1180" width="60" height="30" as="geometry" />
        </mxCell>
        <mxCell id="zIADTViFx_Ct5hKaXOQi-136" value="F" style="ellipse;whiteSpace=wrap;html=1;aspect=fixed;" vertex="1" parent="1">
          <mxGeometry x="250" y="1550" width="30" height="30" as="geometry" />
        </mxCell>
        <mxCell id="zIADTViFx_Ct5hKaXOQi-137" value="F" style="ellipse;whiteSpace=wrap;html=1;aspect=fixed;" vertex="1" parent="1">
          <mxGeometry x="517" y="2030" width="30" height="30" as="geometry" />
        </mxCell>
        <mxCell id="zIADTViFx_Ct5hKaXOQi-138" value="" style="endArrow=none;html=1;rounded=0;fontSize=12;fontColor=#000000;exitX=0.5;exitY=0;exitDx=0;exitDy=0;entryX=0.5;entryY=1;entryDx=0;entryDy=0;" edge="1" parent="1" source="zIADTViFx_Ct5hKaXOQi-137" target="zIADTViFx_Ct5hKaXOQi-80">
          <mxGeometry width="50" height="50" relative="1" as="geometry">
            <mxPoint x="482" y="2064" as="sourcePoint" />
            <mxPoint x="532" y="2010" as="targetPoint" />
          </mxGeometry>
        </mxCell>
        <mxCell id="zIADTViFx_Ct5hKaXOQi-139" value="" style="endArrow=none;html=1;rounded=0;fontSize=12;fontColor=#000000;entryX=0.5;entryY=0;entryDx=0;entryDy=0;exitX=0.5;exitY=1;exitDx=0;exitDy=0;" edge="1" parent="1" source="zIADTViFx_Ct5hKaXOQi-84" target="zIADTViFx_Ct5hKaXOQi-136">
          <mxGeometry width="50" height="50" relative="1" as="geometry">
            <mxPoint x="295" y="1430" as="sourcePoint" />
            <mxPoint x="345" y="1380" as="targetPoint" />
          </mxGeometry>
        </mxCell>
        <mxCell id="zIADTViFx_Ct5hKaXOQi-144" value="C" style="ellipse;whiteSpace=wrap;html=1;labelBackgroundColor=none;fontSize=12;fillColor=#e1d5e7;strokeColor=#9673a6;" vertex="1" parent="1">
          <mxGeometry x="90" y="2350" width="80" height="50" as="geometry" />
        </mxCell>
        <mxCell id="zIADTViFx_Ct5hKaXOQi-145" value="" style="rounded=0;whiteSpace=wrap;html=1;labelBackgroundColor=none;fontSize=12;" vertex="1" parent="1">
          <mxGeometry x="105" y="2673" width="385" height="200" as="geometry" />
        </mxCell>
        <mxCell id="zIADTViFx_Ct5hKaXOQi-146" value="z=0;z&amp;lt;100;z++" style="ellipse;whiteSpace=wrap;html=1;aspect=fixed;labelBackgroundColor=none;fontSize=12;fillColor=default;" vertex="1" parent="1">
          <mxGeometry x="60" y="2713" width="90" height="90" as="geometry" />
        </mxCell>
        <mxCell id="zIADTViFx_Ct5hKaXOQi-147" value="int numc&lt;span style=&quot;color: rgb(31, 31, 31); font-family: &amp;quot;Google Sans&amp;quot;, &amp;quot;Google Sans Text&amp;quot;, Roboto, sans-serif; text-align: left; background-color: rgb(255, 255, 255);&quot;&gt;[100]&amp;nbsp;&lt;/span&gt;" style="rounded=0;whiteSpace=wrap;html=1;labelBackgroundColor=none;fontSize=12;fontColor=#000000;fillColor=default;gradientColor=none;" vertex="1" parent="1">
          <mxGeometry x="237.75" y="2430" width="142.5" height="20" as="geometry" />
        </mxCell>
        <mxCell id="zIADTViFx_Ct5hKaXOQi-148" value="int c = 0" style="rounded=0;whiteSpace=wrap;html=1;labelBackgroundColor=none;fontSize=12;fontColor=#000000;fillColor=default;gradientColor=none;" vertex="1" parent="1">
          <mxGeometry x="260" y="2390" width="90" height="30" as="geometry" />
        </mxCell>
        <mxCell id="zIADTViFx_Ct5hKaXOQi-149" value="c++" style="rounded=0;whiteSpace=wrap;html=1;labelBackgroundColor=none;fontSize=12;fontColor=#000000;fillColor=default;gradientColor=none;" vertex="1" parent="1">
          <mxGeometry x="250" y="2600" width="110" height="20" as="geometry" />
        </mxCell>
        <mxCell id="zIADTViFx_Ct5hKaXOQi-150" value="&lt;span style=&quot;&quot;&gt;numcl&lt;/span&gt;&lt;span style=&quot;color: rgb(31, 31, 31); font-family: &amp;quot;Google Sans&amp;quot;, &amp;quot;Google Sans Text&amp;quot;, Roboto, sans-serif; text-align: left; background-color: rgb(255, 255, 255);&quot;&gt;[z] == NC&lt;/span&gt;" style="rhombus;whiteSpace=wrap;html=1;labelBackgroundColor=none;fontSize=12;fontColor=#000000;fillColor=default;gradientColor=none;" vertex="1" parent="1">
          <mxGeometry x="267" y="2683" width="120" height="70" as="geometry" />
        </mxCell>
        <mxCell id="zIADTViFx_Ct5hKaXOQi-151" value="indr=z" style="rounded=0;whiteSpace=wrap;html=1;labelBackgroundColor=none;fontSize=12;fontColor=#000000;fillColor=default;gradientColor=none;" vertex="1" parent="1">
          <mxGeometry x="155" y="2783" width="120" height="60" as="geometry" />
        </mxCell>
        <mxCell id="zIADTViFx_Ct5hKaXOQi-152" value="" style="endArrow=none;html=1;rounded=0;fontSize=12;fontColor=#000000;exitX=0;exitY=0.5;exitDx=0;exitDy=0;" edge="1" parent="1" source="zIADTViFx_Ct5hKaXOQi-150">
          <mxGeometry width="50" height="50" relative="1" as="geometry">
            <mxPoint x="395" y="2643" as="sourcePoint" />
            <mxPoint x="205" y="2783" as="targetPoint" />
            <Array as="points">
              <mxPoint x="205" y="2718" />
            </Array>
          </mxGeometry>
        </mxCell>
        <mxCell id="zIADTViFx_Ct5hKaXOQi-153" value="" style="endArrow=none;html=1;rounded=0;fontSize=12;fontColor=#000000;entryX=1;entryY=0.5;entryDx=0;entryDy=0;exitX=1;exitY=0.5;exitDx=0;exitDy=0;" edge="1" parent="1" source="zIADTViFx_Ct5hKaXOQi-151" target="zIADTViFx_Ct5hKaXOQi-150">
          <mxGeometry width="50" height="50" relative="1" as="geometry">
            <mxPoint x="395" y="2643" as="sourcePoint" />
            <mxPoint x="445" y="2593" as="targetPoint" />
            <Array as="points">
              <mxPoint x="387" y="2813" />
            </Array>
          </mxGeometry>
        </mxCell>
        <mxCell id="zIADTViFx_Ct5hKaXOQi-154" value="numc&lt;span style=&quot;color: rgb(31, 31, 31); font-family: &amp;quot;Google Sans&amp;quot;, &amp;quot;Google Sans Text&amp;quot;, Roboto, sans-serif; text-align: left; background-color: rgb(255, 255, 255);&quot;&gt;[indr] += monto&lt;/span&gt;" style="rounded=0;whiteSpace=wrap;html=1;labelBackgroundColor=none;fontSize=12;fontColor=#000000;fillColor=default;gradientColor=none;" vertex="1" parent="1">
          <mxGeometry x="242" y="2893" width="138" height="30" as="geometry" />
        </mxCell>
        <mxCell id="zIADTViFx_Ct5hKaXOQi-156" value="" style="endArrow=none;html=1;rounded=0;fontSize=12;fontColor=#000000;entryX=0.532;entryY=1.005;entryDx=0;entryDy=0;entryPerimeter=0;" edge="1" parent="1" source="zIADTViFx_Ct5hKaXOQi-154" target="zIADTViFx_Ct5hKaXOQi-145">
          <mxGeometry width="50" height="50" relative="1" as="geometry">
            <mxPoint x="390" y="2673" as="sourcePoint" />
            <mxPoint x="440" y="2623" as="targetPoint" />
          </mxGeometry>
        </mxCell>
        <mxCell id="zIADTViFx_Ct5hKaXOQi-157" value="int montocl&lt;span style=&quot;color: rgb(31, 31, 31); font-family: &amp;quot;Google Sans&amp;quot;, &amp;quot;Google Sans Text&amp;quot;, Roboto, sans-serif; text-align: left; background-color: rgb(255, 255, 255);&quot;&gt;[100]&lt;/span&gt;" style="rounded=0;whiteSpace=wrap;html=1;labelBackgroundColor=none;fontSize=12;fontColor=#000000;fillColor=default;gradientColor=none;" vertex="1" parent="1">
          <mxGeometry x="249" y="2460" width="110" height="20" as="geometry" />
        </mxCell>
        <mxCell id="zIADTViFx_Ct5hKaXOQi-158" value="&amp;nbsp;m++" style="rounded=0;whiteSpace=wrap;html=1;labelBackgroundColor=none;fontSize=12;fontColor=#000000;fillColor=default;gradientColor=none;" vertex="1" parent="1">
          <mxGeometry x="255" y="2630" width="100" height="20" as="geometry" />
        </mxCell>
        <mxCell id="zIADTViFx_Ct5hKaXOQi-162" value="numc&lt;span style=&quot;color: rgb(31, 31, 31); font-family: &amp;quot;Google Sans&amp;quot;, &amp;quot;Google Sans Text&amp;quot;, Roboto, sans-serif; text-align: left; background-color: rgb(255, 255, 255);&quot;&gt;[c]=NC&lt;/span&gt;" style="rounded=0;whiteSpace=wrap;html=1;labelBackgroundColor=none;fontSize=12;fontColor=#000000;fillColor=default;gradientColor=none;" vertex="1" parent="1">
          <mxGeometry x="260" y="2540" width="85" height="30" as="geometry" />
        </mxCell>
        <mxCell id="zIADTViFx_Ct5hKaXOQi-163" value="&lt;div style=&quot;text-align: center;&quot;&gt;&lt;span style=&quot;text-align: left; background-color: rgb(248, 249, 250);&quot;&gt;montocl&lt;/span&gt;&lt;span style=&quot;background-color: rgb(255, 255, 255); color: rgb(31, 31, 31); font-family: &amp;quot;Google Sans&amp;quot;, &amp;quot;Google Sans Text&amp;quot;, Roboto, sans-serif; text-align: left;&quot;&gt;[c]=monto&lt;/span&gt;&lt;/div&gt;" style="rounded=0;whiteSpace=wrap;html=1;labelBackgroundColor=none;fontSize=12;fontColor=#000000;fillColor=default;gradientColor=none;" vertex="1" parent="1">
          <mxGeometry x="240" y="2500" width="130" height="30" as="geometry" />
        </mxCell>
        <mxCell id="zIADTViFx_Ct5hKaXOQi-164" value="declaro vectores y contador" style="text;html=1;strokeColor=none;fillColor=none;align=center;verticalAlign=middle;whiteSpace=wrap;rounded=0;labelBackgroundColor=none;fontSize=12;fontColor=#000000;" vertex="1" parent="1">
          <mxGeometry x="400" y="2425" width="190" height="30" as="geometry" />
        </mxCell>
        <mxCell id="zIADTViFx_Ct5hKaXOQi-165" value="asigno valor" style="text;html=1;strokeColor=none;fillColor=none;align=center;verticalAlign=middle;whiteSpace=wrap;rounded=0;labelBackgroundColor=none;fontSize=12;fontColor=#000000;" vertex="1" parent="1">
          <mxGeometry x="395" y="2510" width="90" height="30" as="geometry" />
        </mxCell>
        <mxCell id="zIADTViFx_Ct5hKaXOQi-166" value="aumento posicion dentro del while" style="text;html=1;strokeColor=none;fillColor=none;align=center;verticalAlign=middle;whiteSpace=wrap;rounded=0;labelBackgroundColor=none;fontSize=12;fontColor=#000000;" vertex="1" parent="1">
          <mxGeometry x="380" y="2610" width="210" height="30" as="geometry" />
        </mxCell>
      </root>
    </mxGraphModel>
  </diagram>
</mxfile>
